<svg xmlns="http://www.w3.org/2000/svg" viewBox="0 0 1024 1024" id="icon_mono">
<g transform="translate(194.56 194.56) scale(.62)"><g transform="translate(174.07999999999998 174.07999999999998) scale(16.896)"><line transform="rotate(0 20 20) translate(-4 0)" x1="20" y1="14" x2="20" y2="6" stroke="#fff" stroke-width="1.6" stroke-linecap="round"/><line transform="rotate(0 20 20) translate(0 0)" x1="20" y1="14" x2="20" y2="6" stroke="#fff" stroke-width="1.6" stroke-linecap="round"/><line transform="rotate(0 20 20) translate(4 0)" x1="20" y1="14" x2="20" y2="6" stroke="#fff" stroke-width="1.6" stroke-linecap="round"/><line transform="rotate(180 20 20) translate(-4 0)" x1="20" y1="14" x2="20" y2="6" stroke="#fff" stroke-width="1.6" stroke-linecap="round"/><line transform="rotate(180 20 20) translate(0 0)" x1="20" y1="14" x2="20" y2="6" stroke="#fff" stroke-width="1.6" stroke-linecap="round"/><line transform="rotate(180 20 20) translate(4 0)" x1="20" y1="14" x2="20" y2="6" stroke="#fff" stroke-width="1.6" stroke-linecap="round"/><line transform="rotate(270 20 20) translate(-4 0)" x1="20" y1="14" x2="20" y2="6" stroke="#fff" stroke-width="1.6" stroke-linecap="round"/><line transform="rotate(270 20 20) translate(0 0)" x1="20" y1="14" x2="20" y2="6" stroke="#fff" stroke-width="1.6" stroke-linecap="round"/><line transform="rotate(270 20 20) translate(4 0)" x1="20" y1="14" x2="20" y2="6" stroke="#fff" stroke-width="1.6" stroke-linecap="round"/><rect x="28" y="16.5" width="10" height="7" rx="1.5" fill="#fff"/><path d="M20 9 L30 14.5 L30 25.5 L20 31 L10 25.5 L10 14.5 Z M23.2 20 A3.2 3.2 0 1 0 16.8 20 A3.2 3.2 0 1 0 23.2 20 Z" fill="#fff" fill-rule="evenodd"/></g></g>
</svg>
