<svg xmlns="http://www.w3.org/2000/svg" viewBox="0 0 40 40" width="40" height="40" id="bug_NESESW">
<g transform="rotate(45 20 20)"><line x1="20" y1="14" x2="20" y2="6" stroke="#5a0033" stroke-width="2.4"/><circle cx="20" cy="5" r="2.6" fill="#5a0033"/><circle cx="20" cy="5" r="1.3" fill="#ffffff"/></g><g transform="rotate(135 20 20)"><line x1="20" y1="14" x2="20" y2="6" stroke="#5a0033" stroke-width="2.4"/><circle cx="20" cy="5" r="2.6" fill="#5a0033"/><circle cx="20" cy="5" r="1.3" fill="#ffffff"/></g><g transform="rotate(225 20 20)"><line x1="20" y1="14" x2="20" y2="6" stroke="#5a0033" stroke-width="2.4"/><circle cx="20" cy="5" r="2.6" fill="#5a0033"/><circle cx="20" cy="5" r="1.3" fill="#ffffff"/></g><g transform="rotate(0 20 20) translate(-4 0)" stroke="#3a0b22" stroke-width="1.1" fill="#3a0b22"><line x1="20" y1="10.5" x2="20" y2="7"/><circle cx="20" cy="6.4" r="1.1"/></g><g transform="rotate(0 20 20) translate(0 0)" stroke="#3a0b22" stroke-width="1.1" fill="#3a0b22"><line x1="20" y1="10.5" x2="20" y2="8"/></g><g transform="rotate(0 20 20) translate(4 0)" stroke="#3a0b22" stroke-width="1.1" fill="#3a0b22"><line x1="20" y1="10.5" x2="20" y2="7"/><circle cx="20" cy="6.4" r="1.1"/></g><g transform="rotate(90 20 20) translate(-4 0)" stroke="#3a0b22" stroke-width="1.1" fill="#3a0b22"><line x1="20" y1="10.5" x2="20" y2="7"/><circle cx="20" cy="6.4" r="1.1"/></g><g transform="rotate(90 20 20) translate(0 0)" stroke="#3a0b22" stroke-width="1.1" fill="#3a0b22"><line x1="20" y1="10.5" x2="20" y2="8"/></g><g transform="rotate(90 20 20) translate(4 0)" stroke="#3a0b22" stroke-width="1.1" fill="#3a0b22"><line x1="20" y1="10.5" x2="20" y2="7"/><circle cx="20" cy="6.4" r="1.1"/></g><g transform="rotate(180 20 20) translate(-4 0)" stroke="#3a0b22" stroke-width="1.1" fill="#3a0b22"><line x1="20" y1="10.5" x2="20" y2="7"/><circle cx="20" cy="6.4" r="1.1"/></g><g transform="rotate(180 20 20) translate(0 0)" stroke="#3a0b22" stroke-width="1.1" fill="#3a0b22"><line x1="20" y1="10.5" x2="20" y2="8"/></g><g transform="rotate(180 20 20) translate(4 0)" stroke="#3a0b22" stroke-width="1.1" fill="#3a0b22"><line x1="20" y1="10.5" x2="20" y2="7"/><circle cx="20" cy="6.4" r="1.1"/></g><g transform="rotate(270 20 20) translate(-4 0)" stroke="#3a0b22" stroke-width="1.1" fill="#3a0b22"><line x1="20" y1="10.5" x2="20" y2="7"/><circle cx="20" cy="6.4" r="1.1"/></g><g transform="rotate(270 20 20) translate(0 0)" stroke="#3a0b22" stroke-width="1.1" fill="#3a0b22"><line x1="20" y1="10.5" x2="20" y2="8"/></g><g transform="rotate(270 20 20) translate(4 0)" stroke="#3a0b22" stroke-width="1.1" fill="#3a0b22"><line x1="20" y1="10.5" x2="20" y2="7"/><circle cx="20" cy="6.4" r="1.1"/></g><g transform="rotate(135 20 20) translate(0 0)" stroke="#3a0b22" stroke-width="1.1" fill="#3a0b22"><line x1="20" y1="10.5" x2="20" y2="8"/></g><g transform="rotate(315 20 20) translate(0 0)" stroke="#3a0b22" stroke-width="1.1" fill="#3a0b22"><line x1="20" y1="10.5" x2="20" y2="8"/></g><polygon points="20,9 30,14.5 30,25.5 20,31 10,25.5 10,14.5" fill="#ff2d95" stroke="#5a0033" stroke-width="1.6" stroke-linejoin="round"/><polygon points="20,11 28,15.5 20,20 12,15.5" fill="rgba(255,255,255,.4)"/><circle cx="20" cy="20" r="3" fill="#ffffff"/>
</svg>
