<svg xmlns="http://www.w3.org/2000/svg" viewBox="0 0 40 40" width="40" height="40" id="bug_AREA">
<g transform="rotate(0 20 20)" fill="none" stroke="#5a0033" stroke-width="2" stroke-linecap="round"><path d="M12 8 Q20 3 28 8"/></g><g transform="rotate(90 20 20)" fill="none" stroke="#5a0033" stroke-width="2" stroke-linecap="round"><path d="M12 8 Q20 3 28 8"/></g><g transform="rotate(180 20 20)" fill="none" stroke="#5a0033" stroke-width="2" stroke-linecap="round"><path d="M12 8 Q20 3 28 8"/></g><g transform="rotate(270 20 20)" fill="none" stroke="#5a0033" stroke-width="2" stroke-linecap="round"><path d="M12 8 Q20 3 28 8"/></g><g transform="rotate(0 20 20)" fill="none" stroke="#3a0b22" stroke-width="1.2" stroke-linecap="round"><path d="M14.5 12 Q20 9 25.5 12"/></g><g transform="rotate(90 20 20)" fill="none" stroke="#3a0b22" stroke-width="1.2" stroke-linecap="round"><path d="M14.5 12 Q20 9 25.5 12"/></g><g transform="rotate(180 20 20)" fill="none" stroke="#3a0b22" stroke-width="1.2" stroke-linecap="round"><path d="M14.5 12 Q20 9 25.5 12"/></g><g transform="rotate(270 20 20)" fill="none" stroke="#3a0b22" stroke-width="1.2" stroke-linecap="round"><path d="M14.5 12 Q20 9 25.5 12"/></g><g transform="rotate(0 20 20)"><circle cx="20" cy="3.5" r="1.6" fill="#ffffff"/></g><g transform="rotate(90 20 20)"><circle cx="20" cy="3.5" r="1.6" fill="#ffffff"/></g><g transform="rotate(180 20 20)"><circle cx="20" cy="3.5" r="1.6" fill="#ffffff"/></g><g transform="rotate(270 20 20)"><circle cx="20" cy="3.5" r="1.6" fill="#ffffff"/></g><polygon points="20,9 30,14.5 30,25.5 20,31 10,25.5 10,14.5" fill="#ff2d95" stroke="#5a0033" stroke-width="1.6" stroke-linejoin="round"/><polygon points="20,11 28,15.5 20,20 12,15.5" fill="rgba(255,255,255,.4)"/><circle cx="20" cy="20" r="3" fill="#ffffff"/>
</svg>
